<svg fill="none" height="370" viewBox="0 0 344 370" width="344" xmlns="http://www.w3.org/2000/svg"><path clip-rule="evenodd" d="m142.792 60.2603c8.044-13.2212 17.939-24.9986 29.31-34.9343 19.621 16.6597 34.841 38.6034 44.05 63.6555 1.208 3.2878 4.838 5.0599 8.129 3.8447l7.513-2.7744c3.096-1.1435 4.751-4.5251 3.639-7.6284-11.828-32.9825-32.753-61.3336-59.981-81.28769-2.335-1.711486-5.437-1.417811-7.479.40547-16.648 12.66212-30.936 28.57812-42.102 46.93072-12.418 20.4096-20.697 43.3789-24.302 67.4251-3.6064 24.046-2.459 48.633 3.367 72.176 5.288 21.365 14.322 41.436 26.603 59.155 2.03 2.931 6.15 3.371 8.855 1.046l6.376-5.483c2.457-2.113 2.843-5.756.998-8.418-10.762-15.524-18.679-33.111-23.313-51.831-5.103-20.622-6.108-42.159-2.949-63.222 3.158-21.0625 10.41-41.1823 21.286-59.0597zm200.187 231.7777c-.214 1.777-1.214 3.428-2.878 4.398-18.37 10.704-38.512 17.528-59.329 20.077-20.754 2.542-41.751.783-61.851-5.159-3.173-.939-4.907-4.292-3.973-7.461l2.593-8.788c.989-3.352 4.571-5.197 7.937-4.236 17.247 4.93 35.225 6.354 52.998 4.177 15.19-1.86 29.971-6.319 43.787-13.176.107-16.912-2.852-33.567-8.778-49.197-7.574-19.974-19.801-37.765-35.781-52.063-15.98-14.297-35.304-24.734-56.545-30.542-19.21-5.253-39.545-6.598-59.772-3.978-3.497.453-6.763-1.967-7.184-5.462l-.964-8.008c-.392-3.254 1.84-6.256 5.093-6.706 23.593-3.26 47.349-1.791 69.763 4.337 24.251 6.631 46.311 18.548 64.554 34.87 18.243 16.323 32.203 36.634 40.85 59.437 7.978 21.042 11.244 43.709 9.617 66.568-.022.313-.069.617-.137.912zm-105.063-92.246c.983-3.159-.832-6.478-3.992-7.474l-7.603-2.402c-3.334-1.052-6.864.875-7.925 4.2-6.388 20.017-16.605 38.417-30.021 54.014-14.775 17.176-33.036 30.494-53.378 38.93-20.341 8.434-42.2209 11.761-63.9535 9.724-16.6829-1.563-32.9374-6.256-48.032-13.822 1.8768-16.484 6.6353-32.745 14.1007-48.072 8.4626-17.375 20.2257-33.185 34.6202-46.566 2.533-2.355 2.7909-6.314.4712-8.879l-5.2963-5.855c-2.2442-2.481-6.0697-2.727-8.5347-.465-16.8287 15.445-30.5609 33.78-40.3918 53.963-9.70989 19.936-15.40864 41.254-16.80118 62.758-.03168.49-.00286.966.07969 1.424-.17942 2.19.83754 4.384 2.84439 5.584 20.0474 11.985 42.2586 19.306 65.1778 21.455 24.8108 2.325 49.7895-1.473 73.0125-11.103 23.223-9.631 44.07-24.834 60.937-44.443 15.608-18.145 27.423-39.613 34.685-62.971z" fill="#314837" fill-rule="evenodd"/><circle cx="178" cy="355" fill="#ba9f38" r="15"/></svg>