<svg width="449" height="449" viewBox="0 0 449 449" fill="none" xmlns="http://www.w3.org/2000/svg">
<path d="M224.3 110C160.8 109.8 109.2 161.2 109 224.7C108.8 288.2 160.2 339.8 223.7 340C287.2 340.2 338.8 288.8 339 225.3C339.2 161.8 287.8 110.2 224.3 110ZM223.7 150.4C264.9 150.2 298.4 183.5 298.6 224.7C298.8 265.9 265.5 299.4 224.3 299.6C183.1 299.8 149.6 266.5 149.4 225.3C149.2 184.1 182.5 150.6 223.7 150.4ZM317.1 105.3C317.1 90.4999 329.1 78.4999 343.9 78.4999C358.7 78.4999 370.7 90.4999 370.7 105.3C370.7 120.1 358.7 132.1 343.9 132.1C329.1 132.1 317.1 120.1 317.1 105.3ZM446.8 132.5C445.1 96.6 436.9 64.8 410.6 38.6C384.4 12.4 352.6 4.19995 316.7 2.39995C279.7 0.299951 168.8 0.299951 131.8 2.39995C96 4.09995 64.2 12.2999 37.9 38.5C11.6 64.7 3.5 96.4999 1.7 132.4C-0.4 169.4 -0.4 280.3 1.7 317.3C3.4 353.2 11.6 385 37.9 411.2C64.2 437.4 95.9 445.6 131.8 447.4C168.8 449.5 279.7 449.5 316.7 447.4C352.6 445.7 384.4 437.5 410.6 411.2C436.8 385 445 353.2 446.8 317.3C448.9 280.3 448.9 169.5 446.8 132.5ZM399 357C391.2 376.6 376.1 391.7 356.4 399.6C326.9 411.3 256.9 408.6 224.3 408.6C191.7 408.6 121.6 411.2 92.2 399.6C72.6 391.8 57.5 376.7 49.6 357C37.9 327.5 40.6 257.5 40.6 224.9C40.6 192.3 38 122.2 49.6 92.7999C57.4 73.1999 72.5 58.0999 92.2 50.1999C121.7 38.4999 191.7 41.1999 224.3 41.1999C256.9 41.1999 327 38.5999 356.4 50.1999C376 57.9999 391.1 73.0999 399 92.7999C410.7 122.3 408 192.3 408 224.9C408 257.5 410.7 327.6 399 357Z" fill="#314837"/>
</svg>
