<svg width="529" height="513" viewBox="0 0 529 513" fill="none" xmlns="http://www.w3.org/2000/svg">
<path d="M100.1 415.3C101.2 421 97.8 426.4 92.1 427.6C86.7 428.7 81.2 425.3 80.1 419.6C79 414.2 82.4 408.5 87.8 407.3C93.2 406.1 98.9 409.6 100.1 415.3ZM243.2 486.7C236.9 491.3 235.2 500.1 239.5 506.7C244.1 513.3 252.9 515 259.5 510.4C265.8 505.8 267.5 497 262.9 490.4C258.7 483.9 249.8 482.1 243.2 486.7ZM157.2 24.3999C161.6 23.7999 165.3 20.7999 166.8 16.5999C168.3 12.4999 167.3 7.79994 164.3 4.49994C161.2 1.29994 156.6 0.0999391 152.3 1.39994C147.9 1.99994 144.2 4.99993 142.7 9.19993C141.2 13.2999 142.2 17.9999 145.2 21.2999C148.3 24.4999 152.9 25.6999 157.2 24.3999ZM35.5 227.3C25.3 220.5 11.5 223.2 4.69997 233.4C-2.10003 243.6 0.599973 257.4 10.8 264.2C21 271 34.8 268.3 41.6 258.1C48.4 247.9 45.7 234.1 35.5 227.3ZM307.5 56.3999C314.8 52.6999 319.5 45.1999 319.6 36.9999C319.7 28.6999 315.2 21.0999 308 17.1999C300.7 13.2999 291.9 13.7999 285.1 18.3999C277.8 22.0999 273.1 29.5999 273 37.7999C272.9 46.0999 277.4 53.6999 284.6 57.5999C291.9 61.4999 300.7 60.9999 307.5 56.3999ZM116.4 114.4C121.9 111.2 125.1 105.3 124.8 98.9999C124.5 92.6999 120.8 87.0999 115 84.3999C109.3 81.7999 102.6 82.4999 97.6 86.3999C92.1 89.5999 88.9 95.4999 89.2 101.8C89.5 108.1 93.2 113.7 99 116.4C104.7 119 111.4 118.3 116.4 114.4ZM488.7 270.4C481.3 272.1 476.4 279.5 478.1 287.3C479.5 294.7 487 299.6 494.4 297.9C501.8 296.5 506.7 289 505 281.3C503.5 273.9 496.1 269 488.7 270.4ZM528.4 213.6C527.2 208.1 521.8 204.7 516.4 205.9C510.9 207 507.4 212.4 508.6 217.9C509.8 223.4 515.2 226.8 520.7 225.7C526.1 224.5 529.6 219.1 528.4 213.6ZM448.1 139.9C442 143.4 438.4 150 438.7 156.9C439 163.9 443.1 170.2 449.4 173.2C455.8 176.2 463.2 175.4 468.8 171.2C474.9 167.7 478.5 161.1 478.2 154.2C477.9 147.2 473.8 140.9 467.5 137.9C461.1 134.9 453.7 135.7 448.1 139.9ZM441.8 279.3C468.1 322.4 456.9 379.3 415.5 408.4C398.1 420.7 378.4 426.1 358.6 425.5C346.6 472.6 289.2 490.1 253.5 458.1C252.4 459 250.9 459.8 249.8 461C210.7 488.1 157.5 478.4 130.4 438.7C120.7 424.4 115.8 408.1 115.3 391.8C49.9 380.9 25.3 297.8 74.2 252.1C45.9 205.2 74.8 144.7 127.6 137.2C152.7 70.9999 235.2 39.5999 291.2 82.9999C358.6 60.6999 427.5 112.4 422.1 184.1C463.2 196.7 474.9 251 441.8 279.3ZM371.8 353.6C368.7 333 330.9 349 328.7 326.5C325.6 294.5 372.4 225.4 368.7 198.5C365.3 174.5 349.3 169.4 335.3 169.1C321.9 168.8 318.4 171.1 313.9 173.7C311 175.4 307.3 178.6 302.2 173.4C295.9 167.4 291.1 161.7 282.8 160.5C270.5 158.5 265.1 162.5 256.2 170.2C252.8 173.1 244.2 183.1 236.2 179.3C232.8 177.6 220.8 171.6 212.2 167.9C195.9 160.8 172.2 172.5 163.6 187.9C150.7 210.8 125.6 301 121.9 313C113.3 339.6 132.8 361.6 158.8 360.1C169.9 359.5 177.1 355.5 184.2 342.7C188.2 335.3 225.9 235 228.8 230.1C230.8 226.7 237.7 222.1 243.4 225C249.1 228.1 250.3 234.4 249.4 240.1C248.3 249.8 221.4 311 220.5 317.8C217.1 340.7 247.4 344.4 259.1 321.8C262.8 314.7 304.8 229.2 308.5 223.5C312.8 217.2 315.9 215.2 320.2 215.5C323.3 215.5 328.5 216.4 327.3 226.4C325.9 235.8 292.2 298.7 288.4 314.1C283.8 334.7 295 355.5 313.3 364.7C324.7 370.4 375.8 380.4 371.8 353.6ZM377.5 445.9C370 450.3 365.5 458.5 366 467.2C366.4 475.9 371.7 483.6 379.6 487.2C387.6 490.8 396.9 489.7 403.7 484.3C411.2 479.9 415.7 471.7 415.2 463C414.8 454.3 409.5 446.6 401.6 443C393.6 439.4 384.3 440.5 377.5 445.9Z" fill="#314837"/>
</svg>
